<mxfile host="app.diagrams.net" modified="2023-08-25T13:48:00.921Z" agent="Mozilla/5.0 (X11; Linux x86_64; rv:109.0) Gecko/20100101 Firefox/112.0" etag="JAmR6ndwuJM9khRJSHQz" version="21.6.8" type="github">
  <diagram name="Página-1" id="vbKjc4eBOFy-7tgS3_-p">
    <mxGraphModel dx="1274" dy="649" grid="1" gridSize="10" guides="1" tooltips="1" connect="1" arrows="1" fold="1" page="1" pageScale="1" pageWidth="827" pageHeight="1169" math="0" shadow="0">
      <root>
        <mxCell id="0" />
        <mxCell id="1" parent="0" />
        <mxCell id="qwl7cukFGkOOoBlkGldz-1" value="Floricultura" style="swimlane;whiteSpace=wrap;html=1;" vertex="1" parent="1">
          <mxGeometry x="80" y="40" width="140" height="130" as="geometry" />
        </mxCell>
        <mxCell id="qwl7cukFGkOOoBlkGldz-2" value="" style="endArrow=none;html=1;rounded=0;" edge="1" parent="1">
          <mxGeometry width="50" height="50" relative="1" as="geometry">
            <mxPoint x="220" y="100" as="sourcePoint" />
            <mxPoint x="280" y="100" as="targetPoint" />
          </mxGeometry>
        </mxCell>
        <mxCell id="qwl7cukFGkOOoBlkGldz-3" value="1" style="text;html=1;strokeColor=none;fillColor=none;align=center;verticalAlign=middle;whiteSpace=wrap;rounded=0;" vertex="1" parent="1">
          <mxGeometry x="220" y="70" width="60" height="30" as="geometry" />
        </mxCell>
        <mxCell id="qwl7cukFGkOOoBlkGldz-4" value="ter" style="rhombus;whiteSpace=wrap;html=1;" vertex="1" parent="1">
          <mxGeometry x="280" y="60" width="80" height="80" as="geometry" />
        </mxCell>
        <mxCell id="qwl7cukFGkOOoBlkGldz-5" value="" style="endArrow=none;html=1;rounded=0;" edge="1" parent="1">
          <mxGeometry width="50" height="50" relative="1" as="geometry">
            <mxPoint x="360" y="100" as="sourcePoint" />
            <mxPoint x="420" y="100" as="targetPoint" />
          </mxGeometry>
        </mxCell>
        <mxCell id="qwl7cukFGkOOoBlkGldz-6" value="N" style="text;html=1;align=center;verticalAlign=middle;resizable=0;points=[];autosize=1;strokeColor=none;fillColor=none;" vertex="1" parent="1">
          <mxGeometry x="375" y="68" width="30" height="30" as="geometry" />
        </mxCell>
        <mxCell id="qwl7cukFGkOOoBlkGldz-13" value="Cliente" style="swimlane;whiteSpace=wrap;html=1;" vertex="1" parent="1">
          <mxGeometry x="420" y="40" width="140" height="130" as="geometry" />
        </mxCell>
        <mxCell id="qwl7cukFGkOOoBlkGldz-14" value="RG" style="text;html=1;align=center;verticalAlign=middle;resizable=0;points=[];autosize=1;strokeColor=none;fillColor=none;" vertex="1" parent="1">
          <mxGeometry x="450" y="68" width="40" height="30" as="geometry" />
        </mxCell>
        <mxCell id="qwl7cukFGkOOoBlkGldz-15" value="Nome" style="text;html=1;align=center;verticalAlign=middle;resizable=0;points=[];autosize=1;strokeColor=none;fillColor=none;" vertex="1" parent="1">
          <mxGeometry x="440" y="88" width="60" height="30" as="geometry" />
        </mxCell>
        <mxCell id="qwl7cukFGkOOoBlkGldz-16" value="Telefone" style="text;html=1;align=center;verticalAlign=middle;resizable=0;points=[];autosize=1;strokeColor=none;fillColor=none;" vertex="1" parent="1">
          <mxGeometry x="435" y="108" width="70" height="30" as="geometry" />
        </mxCell>
        <mxCell id="qwl7cukFGkOOoBlkGldz-17" value="Endereço" style="text;html=1;align=center;verticalAlign=middle;resizable=0;points=[];autosize=1;strokeColor=none;fillColor=none;" vertex="1" parent="1">
          <mxGeometry x="435" y="128" width="70" height="30" as="geometry" />
        </mxCell>
        <mxCell id="qwl7cukFGkOOoBlkGldz-18" value="" style="endArrow=none;html=1;rounded=0;" edge="1" parent="1">
          <mxGeometry width="50" height="50" relative="1" as="geometry">
            <mxPoint x="510" y="310" as="sourcePoint" />
            <mxPoint x="510" y="170" as="targetPoint" />
          </mxGeometry>
        </mxCell>
        <mxCell id="qwl7cukFGkOOoBlkGldz-19" value="1" style="text;html=1;align=center;verticalAlign=middle;resizable=0;points=[];autosize=1;strokeColor=none;fillColor=none;" vertex="1" parent="1">
          <mxGeometry x="520" y="180" width="30" height="30" as="geometry" />
        </mxCell>
        <mxCell id="qwl7cukFGkOOoBlkGldz-20" value="compra" style="rhombus;whiteSpace=wrap;html=1;" vertex="1" parent="1">
          <mxGeometry x="470" y="310" width="80" height="80" as="geometry" />
        </mxCell>
        <mxCell id="qwl7cukFGkOOoBlkGldz-21" value="" style="endArrow=none;html=1;rounded=0;" edge="1" parent="1">
          <mxGeometry width="50" height="50" relative="1" as="geometry">
            <mxPoint x="530" y="330" as="sourcePoint" />
            <mxPoint x="580" y="280" as="targetPoint" />
          </mxGeometry>
        </mxCell>
        <mxCell id="qwl7cukFGkOOoBlkGldz-22" value="Data" style="text;html=1;align=center;verticalAlign=middle;resizable=0;points=[];autosize=1;strokeColor=none;fillColor=none;" vertex="1" parent="1">
          <mxGeometry x="565" y="258" width="50" height="30" as="geometry" />
        </mxCell>
        <mxCell id="qwl7cukFGkOOoBlkGldz-23" value="" style="endArrow=none;html=1;rounded=0;entryX=0;entryY=0.5;entryDx=0;entryDy=0;exitX=1;exitY=0.25;exitDx=0;exitDy=0;" edge="1" parent="1" source="qwl7cukFGkOOoBlkGldz-25" target="qwl7cukFGkOOoBlkGldz-20">
          <mxGeometry width="50" height="50" relative="1" as="geometry">
            <mxPoint x="300" y="350" as="sourcePoint" />
            <mxPoint x="440" y="320" as="targetPoint" />
          </mxGeometry>
        </mxCell>
        <mxCell id="qwl7cukFGkOOoBlkGldz-24" value="N" style="text;html=1;align=center;verticalAlign=middle;resizable=0;points=[];autosize=1;strokeColor=none;fillColor=none;" vertex="1" parent="1">
          <mxGeometry x="365" y="318" width="30" height="30" as="geometry" />
        </mxCell>
        <mxCell id="qwl7cukFGkOOoBlkGldz-25" value="Produto" style="swimlane;whiteSpace=wrap;html=1;" vertex="1" parent="1">
          <mxGeometry x="100" y="310" width="140" height="150" as="geometry" />
        </mxCell>
        <mxCell id="qwl7cukFGkOOoBlkGldz-26" value="Nome" style="text;html=1;align=center;verticalAlign=middle;resizable=0;points=[];autosize=1;strokeColor=none;fillColor=none;" vertex="1" parent="1">
          <mxGeometry x="140" y="338" width="60" height="30" as="geometry" />
        </mxCell>
        <mxCell id="qwl7cukFGkOOoBlkGldz-27" value="Tipo" style="text;html=1;align=center;verticalAlign=middle;resizable=0;points=[];autosize=1;strokeColor=none;fillColor=none;" vertex="1" parent="1">
          <mxGeometry x="145" y="358" width="50" height="30" as="geometry" />
        </mxCell>
        <mxCell id="qwl7cukFGkOOoBlkGldz-28" value="Preço" style="text;html=1;align=center;verticalAlign=middle;resizable=0;points=[];autosize=1;strokeColor=none;fillColor=none;" vertex="1" parent="1">
          <mxGeometry x="145" y="378" width="50" height="30" as="geometry" />
        </mxCell>
        <mxCell id="qwl7cukFGkOOoBlkGldz-30" value="Quantidade" style="text;html=1;align=center;verticalAlign=middle;resizable=0;points=[];autosize=1;strokeColor=none;fillColor=none;" vertex="1" parent="1">
          <mxGeometry x="125" y="398" width="90" height="30" as="geometry" />
        </mxCell>
        <mxCell id="qwl7cukFGkOOoBlkGldz-31" value="" style="endArrow=none;html=1;rounded=0;" edge="1" parent="1">
          <mxGeometry width="50" height="50" relative="1" as="geometry">
            <mxPoint x="149.5" y="310" as="sourcePoint" />
            <mxPoint x="149.5" y="270" as="targetPoint" />
          </mxGeometry>
        </mxCell>
        <mxCell id="qwl7cukFGkOOoBlkGldz-32" value="ter" style="rhombus;whiteSpace=wrap;html=1;" vertex="1" parent="1">
          <mxGeometry x="110" y="200" width="80" height="80" as="geometry" />
        </mxCell>
        <mxCell id="qwl7cukFGkOOoBlkGldz-33" value="" style="endArrow=none;html=1;rounded=0;entryX=0.5;entryY=1;entryDx=0;entryDy=0;exitX=0.5;exitY=0;exitDx=0;exitDy=0;" edge="1" parent="1" source="qwl7cukFGkOOoBlkGldz-32" target="qwl7cukFGkOOoBlkGldz-1">
          <mxGeometry width="50" height="50" relative="1" as="geometry">
            <mxPoint x="150" y="190" as="sourcePoint" />
            <mxPoint x="200" y="140" as="targetPoint" />
          </mxGeometry>
        </mxCell>
        <mxCell id="qwl7cukFGkOOoBlkGldz-34" value="1" style="text;html=1;align=center;verticalAlign=middle;resizable=0;points=[];autosize=1;strokeColor=none;fillColor=none;" vertex="1" parent="1">
          <mxGeometry x="145" y="168" width="30" height="30" as="geometry" />
        </mxCell>
        <mxCell id="qwl7cukFGkOOoBlkGldz-35" value="N" style="text;html=1;align=center;verticalAlign=middle;resizable=0;points=[];autosize=1;strokeColor=none;fillColor=none;" vertex="1" parent="1">
          <mxGeometry x="155" y="278" width="30" height="30" as="geometry" />
        </mxCell>
      </root>
    </mxGraphModel>
  </diagram>
</mxfile>
